<svg xmlns="http://www.w3.org/2000/svg" width="18" height="18"
     viewBox="0 0 24 24" fill="none" stroke="currentColor"
     stroke-width="1.5" stroke-linecap="round" stroke-linejoin="round">
  <path d="M22 16.92v2a2 2 0 0 1-2.18 2
           19.79 19.79 0 0 1-8.63-3.07
           19.5 19.5 0 0 1-6-6
           19.79 19.79 0 0 1-3.07-8.63
           A2 2 0 0 1 4.11 1h2a2 2 0 0 1 2 1.72
           c.12.9.32 1.78.59 2.63a2 2 0 0 1-.45 2.11L7.09 8.91
           a16 16 0 0 0 6 6l1.45-1.16a2 2 0 0 1 2.11-.45
           c.85.27 1.73.47 2.63.59A2 2 0 0 1 22 16.92z"/>
</svg>
